#define beam_width 22
#define beam_height 22
static char beam_bits[] = {
  0x00, 0x00, 0x00, 0x00, 0x00, 0x00, 0xFC, 0x00, 0x00, 0xFC, 0x01, 0x00, 
  0x0C, 0x03, 0x00, 0x0C, 0x05, 0x00, 0x0C, 0x7F, 0x00, 0x0C, 0xFE, 0x00, 
  0x0C, 0x86, 0x01, 0x0C, 0x86, 0x02, 0x0C, 0x86, 0x07, 0x0C, 0x06, 0x0C, 
  0x0C, 0x46, 0x0C, 0x0C, 0x46, 0x0C, 0xFC, 0xF7, 0x0D, 0xFC, 0x47, 0x0C, 
  0x00, 0x46, 0x0C, 0x00, 0x06, 0x0C, 0x00, 0xFE, 0x0F, 0x00, 0xFE, 0x0F, 
  0x00, 0x00, 0x00, 0x00, 0x00, 0x00, };
