#define confinex_width 22
#define confinex_height 22
static char confinex_bits[] = {
  0x00, 0x00, 0x00, 0x00, 0x00, 0x00, 0x00, 0x00, 0x00, 0x80, 0x6D, 0x00, 
  0x00, 0x00, 0x00, 0x80, 0x40, 0x00, 0x80, 0x40, 0x00, 0x08, 0x00, 0x04, 
  0x98, 0x40, 0x06, 0xB8, 0x40, 0x07, 0x78, 0x80, 0x07, 0x78, 0x80, 0x07, 
  0xB8, 0x40, 0x07, 0x98, 0x40, 0x06, 0x08, 0x00, 0x04, 0x80, 0x40, 0x00, 
  0x80, 0x40, 0x00, 0x00, 0x00, 0x00, 0x80, 0x6D, 0x00, 0x00, 0x00, 0x00, 
  0x00, 0x00, 0x00, 0x00, 0x00, 0x00, };
