#define confiney_width 22
#define confiney_height 22
static char confiney_bits[] = {
  0x00, 0x00, 0x00, 0x00, 0x00, 0x00, 0x00, 0x00, 0x00, 0x80, 0x7F, 0x00, 
  0x00, 0x3F, 0x00, 0x00, 0x1E, 0x00, 0x00, 0x0C, 0x00, 0x68, 0xB3, 0x05, 
  0x08, 0x00, 0x04, 0x00, 0x00, 0x00, 0x08, 0x00, 0x04, 0x08, 0x00, 0x04, 
  0x00, 0x00, 0x00, 0x08, 0x00, 0x04, 0x68, 0xB3, 0x05, 0x00, 0x0C, 0x00, 
  0x00, 0x1E, 0x00, 0x00, 0x3F, 0x00, 0x80, 0x7F, 0x00, 0x00, 0x00, 0x00, 
  0x00, 0x00, 0x00, 0x00, 0x00, 0x00, };
