#define deselect_width 22
#define deselect_height 22
static char deselect_bits[] = {
  0x00, 0x00, 0x00, 0x00, 0x00, 0x00, 0x00, 0x00, 0x00, 0x00, 0x00, 0x00, 
  0x40, 0x80, 0x00, 0xE0, 0xC0, 0x01, 0xB0, 0x61, 0x03, 0x60, 0xB3, 0x01, 
  0xC0, 0xDE, 0x00, 0x80, 0x6D, 0x00, 0x00, 0x33, 0x00, 0x00, 0x33, 0x00, 
  0x80, 0x6D, 0x00, 0xC0, 0xDE, 0x00, 0x60, 0xB3, 0x01, 0xB0, 0x61, 0x03, 
  0xE0, 0xC0, 0x01, 0x40, 0x80, 0x00, 0x00, 0x00, 0x00, 0x00, 0x00, 0x00, 
  0x00, 0x00, 0x00, 0x00, 0x00, 0x00, };
