#define downarrows_width 14
#define downarrows_height 14
static char downarrows_bits[] = {
  0x00, 0x00, 0x00, 0x00, 0x08, 0x04, 0x1C, 0x0E, 0x38, 0x07, 0xF0, 0x03, 
  0xE0, 0x01, 0xC8, 0x04, 0x1C, 0x0E, 0x38, 0x07, 0xF0, 0x03, 0xE0, 0x01, 
  0xC0, 0x00, 0x00, 0x00, };
