#define flag_width 22
#define flag_height 22
static char flag_bits[] = {
  0x00, 0x00, 0x00, 0x00, 0x00, 0x00, 0x60, 0x00, 0x00, 0xE0, 0xFF, 0x01, 
  0xE0, 0xFF, 0x01, 0xE0, 0xFF, 0x01, 0xE0, 0xFF, 0x01, 0xE0, 0xFF, 0x01, 
  0xE0, 0xFF, 0x01, 0xE0, 0xFF, 0x01, 0xE0, 0xFF, 0x01, 0x60, 0x00, 0x00, 
  0x60, 0x00, 0x00, 0x60, 0x00, 0x00, 0x60, 0x00, 0x00, 0x60, 0x00, 0x00, 
  0x60, 0x00, 0x00, 0x60, 0x00, 0x00, 0x60, 0x00, 0x00, 0x60, 0x00, 0x00, 
  0x00, 0x00, 0x00, 0x00, 0x00, 0x00, };
