#define global_width 22
#define global_height 22
static char global_bits[] = {
  0x00, 0x00, 0x00, 0x00, 0x00, 0x00, 0x6C, 0xB3, 0x0D, 0x04, 0x12, 0x08, 
  0x00, 0x00, 0x00, 0x04, 0x12, 0x08, 0x04, 0x12, 0x08, 0x00, 0x00, 0x00, 
  0x04, 0x12, 0x08, 0x6C, 0xB3, 0x0D, 0x00, 0x00, 0x00, 0x00, 0x00, 0x00, 
  0x6C, 0xB3, 0x0D, 0x04, 0x12, 0x08, 0x00, 0x00, 0x00, 0x04, 0x12, 0x08, 
  0x04, 0x12, 0x08, 0x00, 0x00, 0x00, 0x04, 0x12, 0x08, 0x6C, 0xB3, 0x0D, 
  0x00, 0x00, 0x00, 0x00, 0x00, 0x00, };
