#define integrate_width 22
#define integrate_height 22
static char integrate_bits[] = {
  0x00, 0x00, 0x00, 0x00, 0x00, 0x00, 0x00, 0x00, 0x00, 0x00, 0x00, 0x00, 
  0xF0, 0xFF, 0x01, 0xE0, 0x00, 0x03, 0xC0, 0x01, 0x02, 0x80, 0x03, 0x00, 
  0x00, 0x07, 0x00, 0x00, 0x0E, 0x00, 0x00, 0x0C, 0x00, 0x00, 0x04, 0x00, 
  0x00, 0x02, 0x00, 0x00, 0x01, 0x00, 0x80, 0x00, 0x02, 0x40, 0x00, 0x03, 
  0xE0, 0xFF, 0x03, 0xF0, 0xFF, 0x01, 0x00, 0x00, 0x00, 0x00, 0x00, 0x00, 
  0x00, 0x00, 0x00, 0x00, 0x00, 0x00, };
