#define invert_width 22
#define invert_height 22
static char invert_bits[] = {
  0x00, 0x00, 0x00, 0x00, 0x00, 0x00, 0xFC, 0xFF, 0x0F, 0xFC, 0xFF, 0x07, 
  0xFC, 0xFF, 0x03, 0xFC, 0xFF, 0x01, 0x3C, 0xC9, 0x00, 0x3C, 0x40, 0x00, 
  0x7C, 0xE0, 0x00, 0x3C, 0xF0, 0x00, 0x3C, 0x78, 0x00, 0x7C, 0xFC, 0x00, 
  0x3C, 0xFE, 0x00, 0x3C, 0x7F, 0x00, 0xFC, 0xFF, 0x00, 0x7C, 0xDB, 0x00, 
  0x3C, 0x00, 0x00, 0x1C, 0x00, 0x00, 0x0C, 0x00, 0x00, 0x04, 0x00, 0x00, 
  0x00, 0x00, 0x00, 0x00, 0x00, 0x00, };
