#define leftarrows_width 22
#define leftarrows_height 22
static char leftarrows_bits[] = {
  0x00, 0x00, 0x00, 0x00, 0x00, 0x00, 0x00, 0x00, 0x00, 0x00, 0x00, 0x00, 
  0x00, 0x00, 0x00, 0x00, 0x82, 0x00, 0x00, 0xC7, 0x01, 0x80, 0xE3, 0x00, 
  0xC0, 0x71, 0x00, 0xE0, 0x38, 0x00, 0x70, 0x1C, 0x00, 0x70, 0x1C, 0x00, 
  0xE0, 0x38, 0x00, 0xC0, 0x71, 0x00, 0x80, 0xE3, 0x00, 0x00, 0xC7, 0x01, 
  0x00, 0x82, 0x00, 0x00, 0x00, 0x00, 0x00, 0x00, 0x00, 0x00, 0x00, 0x00, 
  0x00, 0x00, 0x00, 0x00, 0x00, 0x00, };
