#define moveright_width 22
#define moveright_height 22
static char moveright_bits[] = {
  0x00, 0x00, 0x00, 0x00, 0x00, 0x00, 0x00, 0x00, 0x00, 0x00, 0x00, 0x00, 
  0x00, 0x00, 0x00, 0x00, 0x20, 0x00, 0x00, 0x70, 0x00, 0x00, 0xE0, 0x00, 
  0x00, 0xC0, 0x01, 0x00, 0x80, 0x03, 0xF8, 0xFF, 0x07, 0xF8, 0xFF, 0x07, 
  0x00, 0x80, 0x03, 0x00, 0xC0, 0x01, 0x00, 0xE0, 0x00, 0x00, 0x70, 0x00, 
  0x00, 0x20, 0x00, 0x00, 0x00, 0x00, 0x00, 0x00, 0x00, 0x00, 0x00, 0x00, 
  0x00, 0x00, 0x00, 0x00, 0x00, 0x00, };
