#define movelock_width 22
#define movelock_height 22
static char movelock_bits[] = {
  0x00, 0x00, 0x00, 0x00, 0x00, 0x00, 0x00, 0x03, 0x00, 0x80, 0x07, 0x00, 
  0xC0, 0x0F, 0x00, 0x00, 0x03, 0x00, 0x10, 0x23, 0x00, 0x18, 0x63, 0x00, 
  0xFC, 0xFF, 0x00, 0xFC, 0xFF, 0x00, 0x18, 0x63, 0x00, 0x10, 0xA3, 0x03, 
  0x00, 0x43, 0x04, 0xC0, 0x4F, 0x04, 0x80, 0x47, 0x04, 0x00, 0xE3, 0x0F, 
  0x00, 0xE0, 0x0E, 0x00, 0xE0, 0x0E, 0x00, 0xE0, 0x0F, 0x00, 0xE0, 0x0F, 
  0x00, 0x00, 0x00, 0x00, 0x00, 0x00, };
