#define moveup_width 22
#define moveup_height 22
static char moveup_bits[] = {
  0x00, 0x00, 0x00, 0x00, 0x00, 0x00, 0x00, 0x00, 0x00, 0x00, 0x0C, 0x00, 
  0x00, 0x1E, 0x00, 0x00, 0x3F, 0x00, 0x80, 0x7F, 0x00, 0xC0, 0xED, 0x00, 
  0xE0, 0xCC, 0x01, 0x40, 0x8C, 0x00, 0x00, 0x0C, 0x00, 0x00, 0x0C, 0x00, 
  0x00, 0x0C, 0x00, 0x00, 0x0C, 0x00, 0x00, 0x0C, 0x00, 0x00, 0x0C, 0x00, 
  0x00, 0x0C, 0x00, 0x00, 0x0C, 0x00, 0x00, 0x0C, 0x00, 0x00, 0x00, 0x00, 
  0x00, 0x00, 0x00, 0x00, 0x00, 0x00, };
