#define nextfile_width 22
#define nextfile_height 22
static char nextfile_bits[] = {
  0x00, 0x00, 0x00, 0x00, 0x00, 0x00, 0xFC, 0x00, 0x00, 0xFC, 0x01, 0x00, 
  0x0C, 0x03, 0x00, 0x0C, 0x05, 0x00, 0x0C, 0x0F, 0x00, 0x0C, 0x18, 0x00, 
  0x0C, 0x18, 0x00, 0x0C, 0x18, 0x00, 0x0C, 0x98, 0x00, 0x0C, 0xD8, 0x01, 
  0x0C, 0x98, 0x03, 0x0C, 0x00, 0x07, 0x8C, 0xFF, 0x0F, 0xBC, 0xFF, 0x0F, 
  0x3C, 0x00, 0x07, 0x00, 0x80, 0x03, 0x00, 0xC0, 0x01, 0x00, 0x80, 0x00, 
  0x00, 0x00, 0x00, 0x00, 0x00, 0x00, };
