#define prevfile_width 22
#define prevfile_height 22
static char prevfile_bits[] = {
  0x00, 0x00, 0x00, 0x00, 0x00, 0x00, 0x00, 0x7E, 0x00, 0x00, 0xFE, 0x00, 
  0x00, 0x86, 0x01, 0x00, 0x86, 0x02, 0x00, 0x86, 0x07, 0x00, 0x06, 0x0C, 
  0x00, 0x06, 0x0C, 0x00, 0x06, 0x0C, 0x40, 0x06, 0x0C, 0xE0, 0x06, 0x0C, 
  0x70, 0x06, 0x0C, 0x38, 0x00, 0x0C, 0xFC, 0x7F, 0x0C, 0xFC, 0x7F, 0x0F, 
  0x38, 0x00, 0x0F, 0x70, 0x00, 0x00, 0xE0, 0x00, 0x00, 0x40, 0x00, 0x00, 
  0x00, 0x00, 0x00, 0x00, 0x00, 0x00, };
