#define refresh_width 22
#define refresh_height 22
static char refresh_bits[] = {
  0x00, 0x00, 0x00, 0x00, 0x00, 0x00, 0x00, 0xE6, 0x0F, 0xC0, 0xE7, 0x0F, 
  0xE0, 0xE1, 0x01, 0x70, 0xE0, 0x03, 0x38, 0x60, 0x07, 0x18, 0x60, 0x06, 
  0x18, 0x60, 0x06, 0x0C, 0x00, 0x0C, 0x0C, 0x00, 0x0C, 0x0C, 0x00, 0x0C, 
  0x0C, 0x00, 0x0C, 0x18, 0x00, 0x06, 0x18, 0x00, 0x06, 0x38, 0x00, 0x07, 
  0x70, 0x80, 0x03, 0xE0, 0xE1, 0x01, 0xC0, 0xFF, 0x00, 0x00, 0x1E, 0x00, 
  0x00, 0x00, 0x00, 0x00, 0x00, 0x00, };
