#define replot_width 22
#define replot_height 22
static char replot_bits[] = {
  0x00, 0x00, 0x00, 0x00, 0x00, 0x00, 0x00, 0xE6, 0x0F, 0xC0, 0xE7, 0x0F, 
  0xE0, 0xE1, 0x01, 0x70, 0xE0, 0x03, 0x38, 0x60, 0x07, 0x18, 0x60, 0x06, 
  0x18, 0x60, 0x06, 0x0C, 0x00, 0x0C, 0x0C, 0x00, 0x0C, 0x0C, 0x00, 0x0C, 
  0x0C, 0x00, 0x0C, 0x98, 0x01, 0x06, 0x98, 0x01, 0x06, 0xB8, 0x01, 0x07, 
  0xF0, 0x81, 0x03, 0xE0, 0xE1, 0x01, 0xFC, 0xF9, 0x00, 0xFC, 0x19, 0x00, 
  0x00, 0x00, 0x00, 0x00, 0x00, 0x00, };
