#define reset_width 22
#define reset_height 22
static char reset_bits[] = {
  0x00, 0x00, 0x00, 0x00, 0x00, 0x00, 0x00, 0x00, 0x00, 0xE0, 0xFF, 0x01, 
  0x10, 0x00, 0x02, 0x10, 0x00, 0x02, 0x90, 0x7F, 0x02, 0x90, 0x40, 0x02, 
  0x9C, 0x43, 0x02, 0x08, 0x41, 0x02, 0x90, 0x40, 0x02, 0x60, 0x40, 0x02, 
  0x00, 0x40, 0x02, 0xF8, 0x41, 0x02, 0xF8, 0x7D, 0x02, 0xF8, 0x05, 0x02, 
  0xF8, 0x05, 0x02, 0xF8, 0xFD, 0x01, 0xF8, 0x01, 0x00, 0x00, 0x00, 0x00, 
  0x00, 0x00, 0x00, 0x00, 0x00, 0x00, };
