#define select_width 22
#define select_height 22
static char select_bits[] = {
  0x00, 0x00, 0x00, 0x00, 0x00, 0x00, 0x00, 0x00, 0x00, 0x80, 0x00, 0x00, 
  0x80, 0x01, 0x00, 0x80, 0x03, 0x00, 0x80, 0x07, 0x00, 0x80, 0x0F, 0x00, 
  0x80, 0x1F, 0x00, 0x80, 0x3F, 0x00, 0x80, 0x7F, 0x00, 0x80, 0x0F, 0x00, 
  0x80, 0x0D, 0x00, 0x80, 0x18, 0x00, 0x00, 0x18, 0x00, 0x00, 0x30, 0x00, 
  0x00, 0x30, 0x00, 0x00, 0x60, 0x00, 0x00, 0x60, 0x00, 0x00, 0x00, 0x00, 
  0x00, 0x00, 0x00, 0x00, 0x00, 0x00, };
