#define spawnup_width 22
#define spawnup_height 22
static unsigned char spawnup_bits[] = {
   0x00, 0x00, 0x00, 0x00, 0x00, 0x00, 0xfc, 0x00, 0x00, 0xfc, 0x01, 0x00,
   0x0c, 0x03, 0x00, 0x0c, 0x05, 0x00, 0x0c, 0x7f, 0x00, 0x0c, 0xfe, 0x00,
   0x0c, 0x86, 0x01, 0x0c, 0x86, 0x02, 0x0c, 0x86, 0x07, 0x0c, 0x06, 0x0c,
   0x0c, 0xde, 0x0c, 0x0c, 0x26, 0x0d, 0xfc, 0x47, 0x0e, 0xfc, 0x27, 0x0d,
   0x00, 0xde, 0x0c, 0x00, 0x06, 0x0c, 0x00, 0xfe, 0x0f, 0x00, 0xfe, 0x0f,
   0x00, 0x00, 0x00, 0x00, 0x00, 0x00 };
