#define unflag_width 22
#define unflag_height 22
static char unflag_bits[] = {
  0x00, 0x00, 0x00, 0x00, 0x00, 0x00, 0x60, 0x00, 0x00, 0xE0, 0xFF, 0x02, 
  0xE0, 0x7F, 0x07, 0xE0, 0xBF, 0x03, 0xE0, 0xDF, 0x01, 0xE0, 0xEF, 0x00, 
  0xE0, 0x77, 0x01, 0xE0, 0xBB, 0x01, 0xE0, 0xDD, 0x01, 0x60, 0x0E, 0x00, 
  0x60, 0x07, 0x00, 0xA0, 0x03, 0x00, 0xC0, 0x01, 0x00, 0xE0, 0x00, 0x00, 
  0x70, 0x00, 0x00, 0x38, 0x00, 0x00, 0x50, 0x00, 0x00, 0x60, 0x00, 0x00, 
  0x00, 0x00, 0x00, 0x00, 0x00, 0x00, };
