#define unstack_width 22
#define unstack_height 22
static char unstack_bits[] = {
  0x00, 0x00, 0x00, 0x00, 0x00, 0x00, 0xFC, 0xF3, 0x0F, 0x04, 0x12, 0x08, 
  0x0C, 0x13, 0x09, 0x5C, 0xB3, 0x09, 0xF4, 0xF3, 0x0F, 0xA4, 0x52, 0x0E, 
  0x04, 0x12, 0x08, 0xFC, 0xF3, 0x0F, 0x00, 0x00, 0x00, 0x00, 0x00, 0x00, 
  0xFC, 0xF3, 0x0F, 0x04, 0x12, 0x08, 0x24, 0x52, 0x0A, 0x74, 0x53, 0x0E, 
  0xDC, 0xF3, 0x0B, 0x8C, 0xB2, 0x09, 0x04, 0x12, 0x08, 0xFC, 0xF3, 0x0F, 
  0x00, 0x00, 0x00, 0x00, 0x00, 0x00, };
