#define uparrows_width 14
#define uparrows_height 14
static char uparrows_bits[] = {
  0x00, 0x00, 0xC0, 0x00, 0xE0, 0x01, 0xF0, 0x03, 0x38, 0x07, 0x1C, 0x0E, 
  0xC8, 0x04, 0xE0, 0x01, 0xF0, 0x03, 0x38, 0x07, 0x1C, 0x0E, 0x08, 0x04, 
  0x00, 0x00, 0x00, 0x00, };
