#define zoominx_width 22
#define zoominx_height 22
static char zoominx_bits[] = {
  0x00, 0x00, 0x00, 0x00, 0x00, 0x00, 0x80, 0x07, 0x00, 0xE0, 0x1F, 0x00, 
  0x70, 0x38, 0x00, 0x38, 0x70, 0x00, 0x18, 0x63, 0x00, 0x0C, 0xC3, 0x00, 
  0xCC, 0xCF, 0x00, 0xCC, 0xCF, 0x00, 0x0C, 0xC3, 0x00, 0x18, 0x63, 0x00, 
  0x38, 0x70, 0x00, 0x70, 0xF8, 0x00, 0xE0, 0xFF, 0x01, 0x80, 0xE7, 0x00, 
  0x10, 0xC0, 0x02, 0x18, 0x00, 0x06, 0xFC, 0xFF, 0x0F, 0x18, 0x00, 0x06, 
  0x10, 0x00, 0x02, 0x00, 0x00, 0x00, };
