#define zoomsel_width 22
#define zoomsel_height 22
static unsigned char zoomsel_bits[] = {
   0x00, 0x00, 0x00, 0x00, 0x00, 0x00, 0x6c, 0xdb, 0x04, 0x04, 0x80, 0x0e,
   0x00, 0x00, 0x1f, 0x04, 0x80, 0x04, 0x04, 0x80, 0x04, 0x00, 0x00, 0x04,
   0x04, 0x80, 0x04, 0x04, 0x80, 0x04, 0x00, 0x00, 0x04, 0x04, 0x80, 0x04,
   0x04, 0x80, 0x04, 0x00, 0x00, 0x1f, 0x04, 0x80, 0x0e, 0x6c, 0xdb, 0x04,
   0x10, 0x20, 0x00, 0x18, 0x60, 0x00, 0xfc, 0xff, 0x00, 0x18, 0x60, 0x00,
   0x10, 0x20, 0x00, 0x00, 0x00, 0x00 };
