#define zoominy_width 22
#define zoominy_height 22
static char zoominy_bits[] = {
  0x00, 0x00, 0x00, 0x00, 0x00, 0x00, 0x80, 0x07, 0x04, 0xE0, 0x1F, 0x0E, 
  0x70, 0x38, 0x1F, 0x38, 0x70, 0x04, 0x18, 0x63, 0x04, 0x0C, 0xC3, 0x04, 
  0xCC, 0xCF, 0x04, 0xCC, 0xCF, 0x04, 0x0C, 0xC3, 0x04, 0x18, 0x63, 0x04, 
  0x38, 0x70, 0x04, 0x70, 0xF8, 0x04, 0xE0, 0xFF, 0x05, 0x80, 0xE7, 0x05, 
  0x00, 0x40, 0x04, 0x00, 0x00, 0x1F, 0x00, 0x00, 0x0E, 0x00, 0x00, 0x04, 
  0x00, 0x00, 0x00, 0x00, 0x00, 0x00, };
