#define zoomall_width 22
#define zoomall_height 22
static char zoomall_bits[] = {
  0x00, 0x00, 0x00, 0x00, 0x00, 0x00, 0x80, 0x07, 0x04, 0xE0, 0x1F, 0x0E, 
  0x70, 0x38, 0x1F, 0x38, 0x70, 0x04, 0x18, 0x60, 0x04, 0x0C, 0xC0, 0x04, 
  0x0C, 0xC0, 0x04, 0x0C, 0xC0, 0x04, 0x0C, 0xC0, 0x04, 0x18, 0x60, 0x04, 
  0x38, 0x70, 0x04, 0x70, 0xF8, 0x04, 0xE0, 0xFF, 0x05, 0x80, 0xE7, 0x05, 
  0x10, 0x40, 0x06, 0x18, 0x00, 0x1F, 0xFC, 0xFF, 0x0F, 0x18, 0x00, 0x06, 
  0x10, 0x00, 0x02, 0x00, 0x00, 0x00, };
