/* XPM */
static const char * pulsar_xpm[] = {
"66 54 2 1",
" 	c None",
".	c #000000000000",
"                                                                  ",
"                                                                  ",
"                                                                  ",
"                                                                  ",
"                                             ..                   ",
"                       .....                 . .                  ",
"                     ...    ...             . .  .                ",
"                   ..         ..            .  .  .               ",
"                 ..            ..          .  . .  .              ",
"                ..              .          . ... .  .             ",
"               ..           ........       ....   .  .            ",
"              .           ...    . ..     .. . . . . .            ",
"             ..          ..      .  .     . . . ... . .           ",
"             .         ..        .  .    . ..  ...   ..           ",
"            .         ..         . .........  . .....             ",
"            .        ..          .. .. ..... . ....               ",
"           .        ..          ..  . .... .. ..                  ",
"           .       ..          ..   . ... .....                   ",
"           .       .         ...... .........                     ",
"           .      .        ............ .....                     ",
"          ..     ..       ....  . .... ...  .                     ",
"           .     .       ................  ...                    ",
"           .    ..      .............. .... ....                  ",
"           .    .       .....   .  . ....   .  ..                 ",
"           .    .      ..................  .    .                 ",
"            .   .      ...........................                ",
"            ..  .      .. . .   .  .  . ..      ...               ",
"             ....    ...... .   .  .  ....      .  .              ",
"                ...... .. ............. .       .  ..             ",
"                ..  .  .... .   .  .  ...       .   .             ",
"                 .... .......   .  . ....      .    ..            ",
"                   .... .............. .       .     .            ",
"                    .  ..... .  . . ...       ..     .            ",
"                    ..... ............        .      .            ",
"                    ........... .....        .       .            ",
"                   ........ .......         .       .             ",
"                  . ... ..  .  .           ..       .             ",
"                ...... ... ....           ..        .             ",
"             ...  ...... .... .          ..        .              ",
"           .... ... ...    .. .        ...         .              ",
"         ..    ... .. .     . .       ..          .               ",
"          ....... .. .      ...     ...          ..               ",
"           ...   .....       ........           ..                ",
"            . .  ....          .               ..                 ",
"             . ... ..          ..             ..                  ",
"              . .. ..           ..          ...                   ",
"               .. ..             ..       ...                     ",
"                  ..              .........                       ",
"                 ..                                               ",
"                  .                                               ",
"                                                                  ",
"                                                                  ",
"                                                                  ",
"                                                                  "};






