#define apply_width 14
#define apply_height 14
static char apply_bits[] = {
  0x00, 0x00, 0x00, 0x00, 0x00, 0x00, 0x20, 0x0C, 0x70, 0x0C, 0x38, 0x0C, 
  0xDC, 0x0F, 0xDC, 0x0F, 0x38, 0x00, 0x70, 0x00, 0x20, 0x00, 0x00, 0x00, 
  0x00, 0x00, 0x00, 0x00, };
