#define crosscorr_width 22
#define crosscorr_height 22
static char crosscorr_bits[] = {
  0x00, 0x00, 0x00, 0x00, 0x00, 0x00, 0x00, 0x00, 0x00, 0x00, 0x00, 0x00, 
  0x00, 0x1E, 0x00, 0x00, 0x1E, 0x00, 0x00, 0x1E, 0x00, 0x20, 0x0C, 0x01, 
  0xE0, 0xCC, 0x01, 0xE0, 0xFF, 0x01, 0xE0, 0xFF, 0x01, 0x00, 0x1E, 0x00, 
  0x00, 0x3F, 0x00, 0x80, 0x73, 0x00, 0xC0, 0xF3, 0x00, 0xC0, 0xE1, 0x00, 
  0x80, 0x61, 0x00, 0x00, 0x00, 0x00, 0x00, 0x00, 0x00, 0x00, 0x00, 0x00, 
  0x00, 0x00, 0x00, 0x00, 0x00, 0x00, };
