#define dismiss_width 22
#define dismiss_height 22
static char dismiss_bits[] = {
  0x00, 0x00, 0x00, 0xFC, 0xFF, 0x0F, 0xFE, 0xFF, 0x1F, 0xFE, 0xFF, 0x1F, 
  0xFE, 0xFF, 0x1F, 0x9E, 0x7F, 0x1E, 0x1E, 0x3F, 0x1E, 0x3E, 0x1E, 0x1F, 
  0x7E, 0x8C, 0x1F, 0xFE, 0xC0, 0x1F, 0xFE, 0xE1, 0x1F, 0xFE, 0xE1, 0x1F, 
  0xFE, 0xC0, 0x1F, 0x7E, 0x8C, 0x1F, 0x3E, 0x1E, 0x1F, 0x1E, 0x3F, 0x1E, 
  0x9E, 0x7F, 0x1E, 0xFE, 0xFF, 0x1F, 0xFE, 0xFF, 0x1F, 0xFE, 0xFF, 0x1F, 
  0xFC, 0xFF, 0x0F, 0x00, 0x00, 0x00, };
