#define done_width 22
#define done_height 22
static char done_bits[] = {
  0x00, 0x00, 0x00, 0xFC, 0xFF, 0x0F, 0xFE, 0xFF, 0x1F, 0xFE, 0xE1, 0x1F, 
  0x7E, 0x80, 0x1F, 0x1E, 0x1E, 0x1E, 0x9E, 0x7F, 0x1E, 0xCE, 0xF3, 0x1C, 
  0xCE, 0xF3, 0x1C, 0xE6, 0xF3, 0x19, 0xE6, 0xF3, 0x19, 0xE6, 0xF3, 0x19, 
  0xE6, 0xF3, 0x19, 0xCE, 0xF3, 0x1C, 0xCE, 0xF3, 0x1C, 0x9E, 0x7F, 0x1E, 
  0x1E, 0x1E, 0x1E, 0x7E, 0x80, 0x1F, 0xFE, 0xE1, 0x1F, 0xFE, 0xFF, 0x1F, 
  0xFC, 0xFF, 0x0F, 0x00, 0x00, 0x00, };
