#define dslopes_width 22
#define dslopes_height 22
static unsigned char dslopes_bits[] = {
   0x00, 0x00, 0x00, 0x00, 0x00, 0x00, 0x00, 0x00, 0x00, 0x00, 0x00, 0x00,
   0x00, 0x00, 0x00, 0x00, 0x00, 0x00, 0xfc, 0xc0, 0x07, 0x84, 0x63, 0x04,
   0x06, 0x26, 0x00, 0x04, 0x66, 0x00, 0x04, 0xe4, 0x03, 0x06, 0x06, 0x0e,
   0x04, 0x04, 0x0c, 0x04, 0x06, 0x08, 0x86, 0x23, 0x0c, 0xfc, 0xe0, 0x07,
   0x00, 0x00, 0x00, 0x00, 0x00, 0x00, 0x00, 0x00, 0x00, 0x00, 0x00, 0x00,
   0x00, 0x00, 0x00, 0x00, 0x00, 0x00 };
