#define gauss_width 22
#define gauss_height 22
static char gauss_bits[] = {
  0x00, 0x00, 0x00, 0x00, 0x00, 0x00, 0x04, 0x00, 0x00, 0x04, 0x00, 0x00, 
  0x04, 0x00, 0x00, 0x04, 0x1C, 0x00, 0x04, 0x3E, 0x00, 0x04, 0x77, 0x00, 
  0x04, 0x63, 0x00, 0x84, 0xE3, 0x00, 0x84, 0xC1, 0x00, 0x84, 0xC1, 0x00, 
  0xC4, 0xC1, 0x01, 0xC4, 0x80, 0x01, 0xE4, 0x80, 0x03, 0x74, 0x00, 0x07, 
  0x3C, 0x00, 0x0E, 0x1C, 0x00, 0x0C, 0x04, 0x00, 0x00, 0xFC, 0xFF, 0x0F, 
  0x00, 0x00, 0x00, 0x00, 0x00, 0x00, };
