#define move_width 22
#define move_height 22
static char move_bits[] = {
  0x00, 0x00, 0x00, 0x00, 0x00, 0x00, 0x00, 0x00, 0x00, 0x00, 0x0C, 0x00, 
  0x00, 0x1E, 0x00, 0x00, 0x3F, 0x00, 0x00, 0x0C, 0x00, 0x00, 0x0C, 0x00, 
  0x20, 0x0C, 0x01, 0x30, 0x0C, 0x03, 0xF8, 0xFF, 0x07, 0xF8, 0xFF, 0x07, 
  0x30, 0x0C, 0x03, 0x20, 0x0C, 0x01, 0x00, 0x0C, 0x00, 0x00, 0x0C, 0x00, 
  0x00, 0x3F, 0x00, 0x00, 0x1E, 0x00, 0x00, 0x0C, 0x00, 0x00, 0x00, 0x00, 
  0x00, 0x00, 0x00, 0x00, 0x00, 0x00, };
