#define moveleft_width 22
#define moveleft_height 22
static char moveleft_bits[] = {
  0x00, 0x00, 0x00, 0x00, 0x00, 0x00, 0x00, 0x00, 0x00, 0x00, 0x00, 0x00, 
  0x00, 0x00, 0x00, 0x00, 0x01, 0x00, 0x80, 0x03, 0x00, 0xC0, 0x01, 0x00, 
  0xE0, 0x00, 0x00, 0x70, 0x00, 0x00, 0xF8, 0xFF, 0x07, 0xF8, 0xFF, 0x07, 
  0x70, 0x00, 0x00, 0xE0, 0x00, 0x00, 0xC0, 0x01, 0x00, 0x80, 0x03, 0x00, 
  0x00, 0x01, 0x00, 0x00, 0x00, 0x00, 0x00, 0x00, 0x00, 0x00, 0x00, 0x00, 
  0x00, 0x00, 0x00, 0x00, 0x00, 0x00, };
