#define overplot_width 22
#define overplot_height 22
static char overplot_bits[] = {
  0x00, 0x00, 0x00, 0x00, 0x00, 0x00, 0xF0, 0x1F, 0x00, 0xF0, 0x3F, 0x00, 
  0x30, 0x60, 0x00, 0xB0, 0xAF, 0x00, 0xB0, 0xD8, 0x01, 0xB0, 0x28, 0x03, 
  0xB0, 0x78, 0x03, 0xB0, 0x40, 0x03, 0xB0, 0x40, 0x03, 0xB0, 0x40, 0x03, 
  0xB0, 0x40, 0x03, 0xB0, 0x40, 0x03, 0xB0, 0x40, 0x03, 0xB0, 0x40, 0x03, 
  0xB0, 0x7F, 0x03, 0x30, 0x00, 0x03, 0xF0, 0xFF, 0x03, 0xF0, 0xFF, 0x03, 
  0x00, 0x00, 0x00, 0x00, 0x00, 0x00, };
