#define resize_width 22
#define resize_height 22
static char resize_bits[] = {
  0x00, 0x00, 0x00, 0x00, 0x00, 0x00, 0xFC, 0x7F, 0x01, 0x84, 0x10, 0x00, 
  0x84, 0x10, 0x00, 0x84, 0x10, 0x00, 0x84, 0x10, 0x00, 0xFC, 0x7F, 0x01, 
  0x84, 0x10, 0x00, 0x84, 0x00, 0x00, 0x84, 0xFC, 0x00, 0x84, 0x7C, 0x00, 
  0xFC, 0x3D, 0x00, 0x84, 0x7C, 0x00, 0x84, 0xEC, 0x08, 0x00, 0xC4, 0x0D, 
  0x84, 0x80, 0x0F, 0x00, 0x00, 0x0F, 0x00, 0x80, 0x0F, 0x00, 0xC0, 0x0F, 
  0x00, 0x00, 0x00, 0x00, 0x00, 0x00, };
