#define rightarrows_width 22
#define rightarrows_height 22
static char rightarrows_bits[] = {
  0x00, 0x00, 0x00, 0x00, 0x00, 0x00, 0x00, 0x00, 0x00, 0x00, 0x00, 0x00, 
  0x00, 0x00, 0x00, 0x40, 0x10, 0x00, 0xE0, 0x38, 0x00, 0xC0, 0x71, 0x00, 
  0x80, 0xE3, 0x00, 0x00, 0xC7, 0x01, 0x00, 0x8E, 0x03, 0x00, 0x8E, 0x03, 
  0x00, 0xC7, 0x01, 0x80, 0xE3, 0x00, 0xC0, 0x71, 0x00, 0xE0, 0x38, 0x00, 
  0x40, 0x10, 0x00, 0x00, 0x00, 0x00, 0x00, 0x00, 0x00, 0x00, 0x00, 0x00, 
  0x00, 0x00, 0x00, 0x00, 0x00, 0x00, };
