#define stack_width 22
#define stack_height 22
static char stack_bits[] = {
  0x00, 0x00, 0x00, 0x00, 0x00, 0x00, 0xFC, 0x3F, 0x00, 0x04, 0x20, 0x00, 
  0x44, 0x20, 0x00, 0x44, 0xE0, 0x01, 0xC4, 0x20, 0x01, 0xEC, 0x31, 0x01, 
  0x3C, 0x39, 0x0F, 0x14, 0x2B, 0x09, 0x04, 0xAE, 0x09, 0x04, 0x64, 0x0D, 
  0x04, 0x60, 0x0D, 0xFC, 0x3F, 0x0D, 0x20, 0x00, 0x0F, 0x20, 0x00, 0x0B, 
  0xE0, 0xFF, 0x09, 0x00, 0x01, 0x08, 0x00, 0x01, 0x08, 0x00, 0xFF, 0x0F, 
  0x00, 0x00, 0x00, 0x00, 0x00, 0x00, };
